<svg xmlns="http://www.w3.org/2000/svg" width="33" height="33" fill="none"><path fill="#343434" d="M29.064 9.14H3.536a2.07 2.07 0 0 0-2.072 2.07v8.25a2.07 2.07 0 0 0 2.072 2.07h25.528a2.07 2.07 0 0 0 2.072-2.07v-8.25a2.07 2.07 0 0 0-2.072-2.07M3.536 20.695a1.2 1.2 0 0 1-1.2-1.2v-8.284a1.21 1.21 0 0 1 1.2-1.2h25.528a1.21 1.21 0 0 1 1.2 1.2v8.249a1.2 1.2 0 0 1-1.2 1.2z"/><path fill="#343434" d="M23.287 15.335a1 1 0 0 0 .089.427H1.9a.445.445 0 1 1 0-.889h21.511a1 1 0 0 0-.124.462"/><path fill="#343434" d="M24.407 13.345a1.97 1.97 0 0 0-1.556.755c-.193.23-.324.506-.382.8a1.8 1.8 0 0 0 0 .89c.053.264.165.513.329.728l.053.071a1.991 1.991 0 0 0 3.556-1.235 1.99 1.99 0 0 0-2-2.01m0 3.11a1.12 1.12 0 0 1-.996-.692 1.07 1.07 0 0 1 0-.89 1.12 1.12 0 0 1 2.151.427 1.11 1.11 0 0 1-1.155 1.2zM21.633 18.5H6.523a.435.435 0 0 0-.436.436v2.16a.435.435 0 0 0 .435.435h15.111a.435.435 0 0 0 .436-.435v-2.16a.435.435 0 0 0-.436-.436m-14.657.889h14.222v1.289H6.976zM8.913 27.007a.294.294 0 0 1-.293-.285.3.3 0 0 1 .089-.204c.338-.347.204-.782-.062-1.449-.267-.666-.551-1.395.062-2.009a.285.285 0 0 1 .409 0 .293.293 0 0 1 0 .4c-.347.347-.187.747.07 1.396.259.649.57 1.431-.07 2.071a.28.28 0 0 1-.205.08M11.482 27.007a.284.284 0 0 1-.293-.285.26.26 0 0 1 .089-.204c.338-.347.204-.782-.062-1.45-.267-.666-.56-1.395.062-1.99a.284.284 0 0 1 .48.302.18.18 0 0 1-.08.08c-.338.347-.178.747.07 1.396.25.648.57 1.43-.07 2.07a.28.28 0 0 1-.196.08M14.042 27.007a.285.285 0 0 1-.284-.285.25.25 0 0 1 .08-.204c.346-.347.213-.782-.054-1.449-.266-.666-.56-1.395.054-2.009a.284.284 0 0 1 .409 0 .276.276 0 0 1 0 .4c-.338.347-.187.747.07 1.396.258.649.57 1.431-.07 2.071a.28.28 0 0 1-.205.08M16.611 27.007a.285.285 0 0 1-.204-.49c.337-.346.204-.782-.063-1.448-.266-.667-.56-1.396.063-1.991a.285.285 0 0 1 .4-.09.275.275 0 0 1 .08.392.2.2 0 0 1-.072.08c-.346.347-.186.747.072 1.395.257.65.569 1.432-.072 2.072a.28.28 0 0 1-.204.08M19.18 27.007a.284.284 0 0 1-.293-.285.26.26 0 0 1 .088-.204c.338-.347.205-.782-.062-1.449-.266-.667-.55-1.395.063-2.009a.284.284 0 0 1 .4.4c-.338.347-.178.747.07 1.396.25.649.57 1.43-.07 2.07a.28.28 0 0 1-.196.08"/><circle cx="24.744" cy="18.944" r=".444" fill="#343434"/><circle cx="26.522" cy="18.944" r=".444" fill="#343434"/><circle cx="28.3" cy="18.944" r=".444" fill="#343434"/></svg>