<svg xmlns="http://www.w3.org/2000/svg" width="32" height="32" fill="none"><g clip-path="url(#a)"><path fill="#343434" d="M24.217 3.441H7.767a1.55 1.55 0 0 0-1.55 1.55v22.034a1.55 1.55 0 0 0 .525 1.166c.285.245.649.381 1.025.384h16.45a1.56 1.56 0 0 0 1.558-1.55V4.99a1.56 1.56 0 0 0-1.558-1.55m.733 23.584a.733.733 0 0 1-.733.733H7.767a.73.73 0 0 1-.667-.432.7.7 0 0 1-.067-.301V4.99a.733.733 0 0 1 .734-.733h16.45a.733.733 0 0 1 .733.733z"/><path fill="#343434" d="M16 28.567a.41.41 0 0 1-.408-.408V3.842a.417.417 0 0 1 .833 0V28.16a.406.406 0 0 1-.425.408"/><path stroke="#343434" d="M18.018 7.2a.5.5 0 0 1 .5-.5H23a.5.5 0 0 1 .5.5v11.324a.5.5 0 0 1-.5.5h-4.483a.5.5 0 0 1-.5-.5z"/><path fill="#343434" d="M13 16a1 1 0 1 0 0-2 1 1 0 0 0 0 2"/></g><defs><clipPath id="a"><path fill="#fff" d="M1 1h30v30H1z"/></clipPath></defs></svg>