<svg xmlns="http://www.w3.org/2000/svg" width="32" height="32" fill="none"><g fill="#343434" clip-path="url(#a)"><path d="M27.3 15.074H4.692a1.541 1.541 0 0 0-1.23 2.47c.204.267.49.459.813.547q.203.071.417.067H27.3c.175 0 .348-.034.509-.1a1.52 1.52 0 0 0 1.033-1.442 1.54 1.54 0 0 0-1.542-1.542m0 2.267H4.692a.724.724 0 1 1 0-1.442H27.3a.726.726 0 1 1 0 1.442"/><path d="M27.399 17.344H4.691a.416.416 0 0 0-.409.325.3.3 0 0 0 0 .083v2.933a5.93 5.93 0 0 0 3.85 5.559q.188.084.384.141.191.066.391.092c.428.107.868.16 1.309.158h11.616q.51.001 1.009-.1.213-.015.416-.083.201-.035.392-.108a5.97 5.97 0 0 0 4.1-5.659v-2.933a.41.41 0 0 0-.35-.408m-.408 3.333a5.134 5.134 0 0 1-5.159 5.133H10.166a5.125 5.125 0 0 1-5.125-5.125v-2.5h21.95z"/><path d="M8.041 28.497a.3.3 0 0 1-.108 0 .41.41 0 0 1-.284-.5l.517-1.908a.43.43 0 0 1 .833.217l-.525 1.908a.39.39 0 0 1-.433.283m16.167-.058a.42.42 0 0 1-.358-.208l-.984-1.717a.413.413 0 0 1 .717-.408l.983 1.716a.407.407 0 0 1-.158.559.35.35 0 0 1-.2.058M11.083 15.89H5.666a.41.41 0 0 1-.408-.408V6.914A3.125 3.125 0 0 1 8.374 3.79a3.1 3.1 0 0 1 2.184.892.416.416 0 0 1 0 .583.41.41 0 0 1-.575 0 2.27 2.27 0 0 0-1.609-.65 2.31 2.31 0 0 0-2.3 2.3v8.158h5a.416.416 0 1 1 0 .834z"/><path d="m13.175 4.607-.409-.583a1.1 1.1 0 0 0-.7-.442 1.08 1.08 0 0 0-.833.183l-.967.692-.691.5-1.267.908a1.075 1.075 0 0 0-.25 1.509l.442.575a1.075 1.075 0 0 0 1.508.258l2.95-2.1a1.065 1.065 0 0 0 .217-1.5M9.5 7.54a.267.267 0 0 1-.367-.058L8.725 6.9a.267.267 0 0 1 .058-.367l1.667-1.175.133-.092.417-.283.766-.542q.076-.018.15 0a.25.25 0 0 1 .175.109l.409.583a.26.26 0 0 1-.059.358L11.683 6zm1.3 3.5a.41.41 0 0 1-.4-.324l-.35-1.609a.426.426 0 1 1 .833-.175l.35 1.608a.41.41 0 0 1-.308.492zm2.416-1.35a.43.43 0 0 1-.35-.183l-.908-1.383a.425.425 0 0 1 .117-.567.41.41 0 0 1 .591.108l.909 1.375a.41.41 0 0 1-.109.567.4.4 0 0 1-.25.083m2.042-1.583a.43.43 0 0 1-.242-.075l-1.333-.975a.409.409 0 0 1 .483-.658l1.334.966a.417.417 0 0 1 .091.575.42.42 0 0 1-.333.167"/></g><defs><clipPath id="a"><path fill="#fff" d="M1 1h30v30H1z"/></clipPath></defs></svg>