<svg xmlns="http://www.w3.org/2000/svg" width="32" height="32" fill="none"><g fill="#343434" clip-path="url(#a)"><path d="M18.059 20.68a.43.43 0 0 1-.292-.116.416.416 0 0 1 0-.583l9.375-9.467a1.79 1.79 0 0 0 .325-2.342c-.583-1.133-2.3-1.183-2.3-1.183h-9.392l-10.75 10.7a.393.393 0 0 1-.575 0 .41.41 0 0 1 0-.575L15.284 6.281a.4.4 0 0 1 .283-.117l9.6.008c.1 0 2.242.059 3.05 1.625a2.625 2.625 0 0 1-.483 3.334l-1.826 1.834-7.558 7.59a.42.42 0 0 1-.291.126"/><path d="M27.525 13.765a.3.3 0 0 1-.117 0l-2.017-.609a.424.424 0 0 1-.233-.542.4.4 0 0 1 .525-.225l1.992.6a.417.417 0 0 1 .275.517.41.41 0 0 1-.425.258"/><path d="M28.85 13.481a1.5 1.5 0 0 0-1.234-.525h-.1a.4.4 0 0 0-.283.117l-.475.475-9.316 9.358h-10a2.39 2.39 0 0 1-2.084-2.708 2.36 2.36 0 0 1 2.6-1.925h.067l7.5.05c.191 0 .591.133.558.75a.58.58 0 0 1-.633.591l-7.417.067a1.225 1.225 0 0 0-1.2 1.208 1.175 1.175 0 0 0 1.292 1.159h7.5a3.28 3.28 0 0 0 2.666-1.542v-.067a.3.3 0 0 0 0-.083c.09-.396.132-.802.125-1.208a3.7 3.7 0 0 0-.566-2.025 3.1 3.1 0 0 0-2.284-1.275h.1l-4.008.05H7.6a4 4 0 0 0-.758.067h-.075a4.6 4.6 0 0 0-2.259 1.1l-.191.183c-.417.414-.75.903-.984 1.442v.041a5.3 5.3 0 0 0-.308 1.917 4.85 4.85 0 0 0 4.167 4.616h.083l10.975.05a.4.4 0 0 0 .283-.116l10.35-10.359a.33.33 0 0 0 .1-.158 1.45 1.45 0 0 0-.133-1.25M7.183 24.515c-3.441-.834-3.45-3.642-3.45-3.809v-.075c.003-.52.093-1.035.267-1.525.206-.443.488-.846.833-1.192l.184-.166a3.92 3.92 0 0 1 2.516-.942h4.133l3.976-.05a2.32 2.32 0 0 1 1.666.925c.413.765.531 1.654.334 2.5a2.45 2.45 0 0 1-1.942 1.175H8.15c-.3 0-.45-.108-.458-.341a.39.39 0 0 1 .383-.425l7.408-.067a1.393 1.393 0 0 0 1.433-1.417 1.425 1.425 0 0 0-1.35-1.667l-7.5-.05h-.083a3.167 3.167 0 0 0-.566 6.3h10.191a.43.43 0 0 0 .292-.125l9.767-9.791a.65.65 0 0 1 .5.191.6.6 0 0 1 .05.417L17.95 24.564z"/></g><defs><clipPath id="a"><path fill="#fff" d="M1 .773h30v30H1z"/></clipPath></defs></svg>