<svg xmlns="http://www.w3.org/2000/svg" width="32" height="32" fill="none"><g fill="#343434" clip-path="url(#a)"><path d="m24.676 21.234-2.817-2.808.491-.5.292.291.084-.083 1.95 1.95 2.791-2.8-1.1-1.1.575-.575 1.683 1.675zM9.467 17.951a6.96 6.96 0 0 1-3.1-.7l.409-.717c.183.108 4.491 2.458 8.916-2.733l.617.533c-2.467 2.892-4.967 3.617-6.842 3.617"/><path d="M3.316 6.273v19.725h3.659V6.273zm2.842 18.934H4.141V7.098h2.017zM17.667 4.217l-.334-.291-.274.325-5.717 5.716 4.658 4.7 5 5 1.317-.766.35-.234.35-.216 3.533-2.042.35-.217.359-.208.833-.475.5-.275zM12.5 9.967l2.975-2.975 1.867-1.908 10 10-2.4 1.4-3.767 2.175z"/></g><defs><clipPath id="a"><path fill="#fff" d="M1 1h30v30H1z"/></clipPath></defs></svg>