<svg xmlns="http://www.w3.org/2000/svg" width="32" height="32" fill="none"><g fill="#343434" clip-path="url(#a)"><path d="M25.066 6.456c-2.738-.671-3.126-1.059-3.797-3.797a.862.862 0 0 0-1.594 0c-.663 2.73-1.059 3.126-3.789 3.789a.86.86 0 0 0-.628.792.81.81 0 0 0 .629.8c2.73.673 3.125 1.06 3.788 3.79a.86.86 0 0 0 1.593 0c.672-2.739 1.06-3.126 3.798-3.798a.86.86 0 0 0 0-1.593zM18.341 7.99h-.043q-.264-.15-.551-.24l-.25-.087a9 9 0 0 0-.69-.215 9 9 0 0 0-.61-.164c.215-.052.422-.103.61-.164q.352-.092.69-.223l.25-.087h.103l.146-.06.155-.069c.77-.358 1.371-1 1.68-1.79.246-.59.439-1.202.576-1.826.724 2.919 1.36 3.556 4.306 4.305-2.928.724-3.565 1.36-4.306 4.306a11 11 0 0 0-.577-1.826 3.25 3.25 0 0 0-1.49-1.86M17.344 15.864c-2.214-3.333-4.427-7.76-4.427-10.144a.43.43 0 1 0-.86 0c0 2.394-2.231 6.889-4.444 10.11s-2.35 5.51-2.265 6.32a6.984 6.984 0 0 0 7.113 6.802 7.07 7.07 0 0 0 7.164-6.768c.052-.999-.146-3.134-2.282-6.32m-9.05.447a38.7 38.7 0 0 0 3.547-6.467 21 21 0 0 0 .62-1.722 36.3 36.3 0 0 0 4.185 8.241c1.998 2.997 2.187 4.926 2.118 5.804a6.226 6.226 0 0 1-6.32 5.95 6.26 6.26 0 0 1-5.899-4.004 5.4 5.4 0 0 1-.361-1.972v-.052c-.078-.56-.112-2.566 2.11-5.778"/></g><defs><clipPath id="a"><path fill="#fff" d="M0 0h32v32H0z"/></clipPath></defs></svg>