<svg xmlns="http://www.w3.org/2000/svg" width="32" height="32" fill="none"><g fill="#343434" clip-path="url(#a)"><path d="M25.208 14.875h-9.85a.417.417 0 1 1 0-.833h9.85a.884.884 0 0 0 .875-.884.835.835 0 0 0-.875-.833H6.833a.88.88 0 0 0-.625.258.83.83 0 0 0-.259.617.875.875 0 0 0 .884.858h2.691a.416.416 0 1 1 0 .834H6.833a1.696 1.696 0 0 1 0-3.392h18.375a1.696 1.696 0 0 1 0 3.392z"/><path d="M23.783 27.859H8.225a.42.42 0 0 1-.409-.367L6.375 14.509a.4.4 0 0 1 .108-.317.4.4 0 0 1 .3-.133h2.708a.417.417 0 0 1 0 .833h-2.25l1.35 12.167h14.826l1.35-12.167h-9.409a.417.417 0 1 1 0-.833h9.859a.43.43 0 0 1 .308.133.4.4 0 0 1 .1.317l-1.442 12.983a.4.4 0 0 1-.4.367"/><path d="M18.5 17.26a.4.4 0 0 0-.15-.234l-2.567-1.925v-3.208q0-.093-.042-.175a.41.41 0 0 0-.367-.234H9.542a.41.41 0 0 0-.408.409v7.866a3.43 3.43 0 0 0 2.66 3.357 3.4 3.4 0 0 0 1.498.002l.383-.109a3.1 3.1 0 0 0 2.134-2.958v-1.425l.525.333q.074.046.158.067a2.25 2.25 0 0 0 1.784-.45 1.37 1.37 0 0 0 .225-1.317m-3.534-5v3a.41.41 0 0 0 .167.333l2.6 1.95a.53.53 0 0 1-.084.433 1.42 1.42 0 0 1-.983.208l-1.075-.691a.408.408 0 0 0-.625.35v2.166a2.28 2.28 0 0 1-1.566 2.175 3 3 0 0 1-.317.092 2.5 2.5 0 0 1-2.184-.442 2.6 2.6 0 0 1-.733-1 2.6 2.6 0 0 1-.233-1.066v-7.5z"/><path d="m13.707 8.365-.4-.258-.225-.142-.175-.116a.4.4 0 0 0-.241-.075H9.49a.4.4 0 0 0-.267.1l-.058.05-.559.466a2.76 2.76 0 0 0-1 2.134v1.366a.41.41 0 0 0 .409.409h6.541a.41.41 0 0 0 .409-.409v-1.2a2.76 2.76 0 0 0-1.259-2.325m-5.283 3.117v-.958a1.96 1.96 0 0 1 .708-1.509l.509-.425h2.916l.7.467a1.94 1.94 0 0 1 .892 1.667v.791z"/><path d="M12.41 5.367h-2.243a1.075 1.075 0 0 0-1.083 1.075v1.075c-.002.14.026.28.083.408a1.07 1.07 0 0 0 .992.667h2.25a1.066 1.066 0 0 0 1.092-1.075V6.442a1.076 1.076 0 0 0-1.092-1.075m-2.5 2.15V6.442a.26.26 0 0 1 .257-.259h2.25a.26.26 0 0 1 .259.259v1.075a.26.26 0 0 1-.259.258h-2.25a.26.26 0 0 1-.266-.258zM23.591 12.3h-7.458a.41.41 0 0 1-.408-.408v-1.209a.42.42 0 0 1 .191-.35l2.217-1.341v-.834a.417.417 0 0 1 .833 0v1.067a.42.42 0 0 1-.191.35l-2.234 1.342v.566h6.667V10.9l-1.858-1.25a.41.41 0 0 1-.184-.342V8.092c0-.034.3-1.117 2.034-1.467V4.958h-1.667a.417.417 0 1 1 0-.833h2.042a.41.41 0 0 1 .408.408v2.442a.416.416 0 0 1-.358.408c-1.309.167-1.617.717-1.667.834v.833l1.85 1.25a.41.41 0 0 1 .183.342v1.208a.41.41 0 0 1-.4.45"/><path d="M23.591 12.3h-7.458a.41.41 0 0 1-.408-.408v-1.209a.42.42 0 0 1 .191-.35l2.217-1.341v-.834a.416.416 0 1 1 .833 0v1.067a.42.42 0 0 1-.191.35l-2.234 1.342v.566h6.667V10.9L21.35 9.65a.41.41 0 0 1-.184-.342v-1.22c.014-.075.337-1.12 2.034-1.463V4.958h-1.667a.417.417 0 0 1 0-.833h2.042a.41.41 0 0 1 .408.408v2.442a.42.42 0 0 1-.358.408c-1.309.167-1.617.717-1.667.834v.833l1.85 1.25a.41.41 0 0 1 .183.342v1.208a.41.41 0 0 1-.4.45"/><path d="M21.56 4.148h-.1a5 5 0 0 0-3.334 1.275 3.62 3.62 0 0 0-.959 2.775.417.417 0 0 0 .417.392h3.967a.41.41 0 0 0 .408-.408V4.557a.41.41 0 0 0-.4-.409m-3.567 3.625c.006-.66.262-1.294.716-1.775a4.07 4.07 0 0 1 2.433-1.008v2.783zM24.867 4.492h-1.283a.41.41 0 0 0-.408.409v1.525a.41.41 0 0 0 .408.408h1.283a.41.41 0 0 0 .409-.408V4.9a.41.41 0 0 0-.409-.409m-.408 1.509h-.467v-.684h.467z"/></g><defs><clipPath id="a"><path fill="#fff" d="M1 1h30v30H1z"/></clipPath></defs></svg>