<svg xmlns="http://www.w3.org/2000/svg" width="32" height="32" fill="none"><g clip-path="url(#a)"><path fill="#343434" d="M24.283 5H7.192A2.19 2.19 0 0 0 5 7.192v17.091a2.19 2.19 0 0 0 2.192 2.192h17.091a2.19 2.19 0 0 0 2.192-2.192V7.192A2.19 2.19 0 0 0 24.283 5m1.367 19.283a1.375 1.375 0 0 1-1.367 1.375H7.192a1.375 1.375 0 0 1-1.375-1.375V7.192a1.375 1.375 0 0 1 1.375-1.367h17.091a1.375 1.375 0 0 1 1.367 1.367z"/><path fill="#fff" d="M25.65 24.283a1.375 1.375 0 0 1-1.367 1.375H7.192a1.375 1.375 0 0 1-1.375-1.375V7.192a1.375 1.375 0 0 1 1.375-1.367h17.091a1.375 1.375 0 0 1 1.367 1.367z"/><path fill="#343434" d="M16.217 12.405H14.55a.407.407 0 0 0-.408.417v3.1a.41.41 0 0 0 .408.408h1.667a2 2 0 0 0 .79-.111 1.967 1.967 0 0 0-.79-3.814m-1.309 3.108V13.23h1.259c.483 0 1.291.15 1.291 1.15 0 .725-.475 1.133-1.291 1.133zm1.275-3.108h-1.666a.407.407 0 0 0-.409.417v3.1a.41.41 0 0 0 .409.408h1.666a1.9 1.9 0 0 0 .791-.111 1.966 1.966 0 0 0-.79-3.814m-1.275 3.108V13.23h1.259c.483 0 1.291.15 1.291 1.15 0 .725-.475 1.133-1.291 1.133zm1.275-3.108h-1.666a.407.407 0 0 0-.409.417v3.1a.41.41 0 0 0 .409.408h1.666a1.9 1.9 0 0 0 .791-.111 1.966 1.966 0 0 0-.79-3.814m-1.275 3.108V13.23h1.259c.483 0 1.291.15 1.291 1.15 0 .725-.475 1.133-1.291 1.133zm1.275-3.108h-1.666a.407.407 0 0 0-.409.417v3.1a.41.41 0 0 0 .409.408h1.666a1.9 1.9 0 0 0 .791-.111 1.966 1.966 0 0 0-.79-3.814m-1.275 3.108V13.23h1.259c.483 0 1.291.15 1.291 1.15 0 .725-.475 1.133-1.291 1.133zm1.275-3.108h-1.666a.407.407 0 0 0-.409.417v3.1a.41.41 0 0 0 .409.408h1.666a1.9 1.9 0 0 0 .791-.111 1.966 1.966 0 0 0-.79-3.814m-1.275 3.108V13.23h1.259c.483 0 1.291.15 1.291 1.15 0 .725-.475 1.133-1.291 1.133zm1.275-3.108h-1.666a.407.407 0 0 0-.409.417v3.1a.41.41 0 0 0 .409.408h1.666a1.9 1.9 0 0 0 .791-.111 1.966 1.966 0 0 0-.79-3.814m-1.275 3.108V13.23h1.259c.483 0 1.291.15 1.291 1.15 0 .725-.475 1.133-1.291 1.133zm1.275-3.108h-1.666a.407.407 0 0 0-.409.417v3.1a.41.41 0 0 0 .409.408h1.666a1.9 1.9 0 0 0 .791-.111 1.966 1.966 0 0 0-.79-3.814m-1.275 3.108V13.23h1.259c.483 0 1.291.15 1.291 1.15 0 .725-.475 1.133-1.291 1.133zm1.275-3.108h-1.666a.407.407 0 0 0-.409.417v3.1a.41.41 0 0 0 .409.408h1.666a1.9 1.9 0 0 0 .791-.111 1.966 1.966 0 0 0-.79-3.814m-1.275 3.108V13.23h1.259c.483 0 1.291.15 1.291 1.15 0 .725-.475 1.133-1.291 1.133zm1.275-3.108h-1.666a.407.407 0 0 0-.409.417v3.1a.41.41 0 0 0 .409.408h1.666a1.9 1.9 0 0 0 .791-.111 1.966 1.966 0 0 0-.79-3.814m-1.275 3.108V13.23h1.259c.483 0 1.291.15 1.291 1.15 0 .725-.475 1.133-1.291 1.133zm1.275-3.108h-1.666a.407.407 0 0 0-.409.417v3.1a.41.41 0 0 0 .409.408h1.666a1.9 1.9 0 0 0 .791-.111 1.966 1.966 0 0 0-.79-3.814m-1.275 3.108V13.23h1.259c.483 0 1.291.15 1.291 1.15 0 .725-.475 1.133-1.291 1.133zm1.275-3.108h-1.666a.407.407 0 0 0-.409.417v3.1a.41.41 0 0 0 .409.408h1.666a1.9 1.9 0 0 0 .791-.111 1.966 1.966 0 0 0-.79-3.814m-1.275 3.108V13.23h1.259c.483 0 1.291.15 1.291 1.15 0 .725-.475 1.133-1.291 1.133zm1.275-3.108h-1.666a.407.407 0 0 0-.409.417v3.1a.41.41 0 0 0 .409.408h1.666a1.9 1.9 0 0 0 .791-.111 1.966 1.966 0 0 0-.79-3.814m-1.275 3.108V13.23h1.259c.483 0 1.291.15 1.291 1.15 0 .725-.475 1.133-1.291 1.133zm1.275-3.108h-1.666a.407.407 0 0 0-.409.417v3.1a.41.41 0 0 0 .409.408h1.666a1.9 1.9 0 0 0 .791-.111 1.966 1.966 0 0 0-.79-3.814m-1.275 3.108V13.23h1.259c.483 0 1.291.15 1.291 1.15 0 .725-.475 1.133-1.291 1.133zm1.275-3.108h-1.666a.407.407 0 0 0-.409.417v3.1a.41.41 0 0 0 .409.408h1.666a1.9 1.9 0 0 0 .791-.111 1.966 1.966 0 0 0-.79-3.814m-1.275 3.108V13.23h1.259c.483 0 1.291.15 1.291 1.15 0 .725-.475 1.133-1.291 1.133zm1.275-3.108h-1.666a.407.407 0 0 0-.409.417v3.1a.41.41 0 0 0 .409.408h1.666a1.9 1.9 0 0 0 .791-.111 1.966 1.966 0 0 0-.79-3.814m-1.275 3.108V13.23h1.259c.483 0 1.291.15 1.291 1.15 0 .725-.475 1.133-1.291 1.133zm1.275-3.108h-1.666a.407.407 0 0 0-.409.417v3.1a.41.41 0 0 0 .409.408h1.666a1.9 1.9 0 0 0 .791-.111 1.966 1.966 0 0 0-.79-3.814m-1.275 3.108V13.23h1.259c.483 0 1.291.15 1.291 1.15 0 .725-.475 1.133-1.291 1.133zm1.275-3.108h-1.666a.407.407 0 0 0-.409.417v3.1a.41.41 0 0 0 .409.408h1.666a1.9 1.9 0 0 0 .791-.111 1.966 1.966 0 0 0-.79-3.814m-1.275 3.108V13.23h1.259c.483 0 1.291.15 1.291 1.15 0 .725-.475 1.133-1.291 1.133zm1.275-3.108h-1.666a.407.407 0 0 0-.409.417v3.1a.41.41 0 0 0 .409.408h1.666a1.9 1.9 0 0 0 .791-.111 1.966 1.966 0 0 0-.79-3.814m-1.275 3.108V13.23h1.259c.483 0 1.291.15 1.291 1.15 0 .725-.475 1.133-1.291 1.133zm1.275-3.108h-1.666a.407.407 0 0 0-.409.417v3.1a.41.41 0 0 0 .409.408h1.666a1.9 1.9 0 0 0 .791-.111 1.966 1.966 0 0 0-.79-3.814m-1.275 3.108V13.23h1.259c.483 0 1.291.15 1.291 1.15 0 .725-.475 1.133-1.291 1.133zm1.275-3.108h-1.666a.407.407 0 0 0-.409.417v3.1a.41.41 0 0 0 .409.408h1.666a1.9 1.9 0 0 0 .791-.111 1.966 1.966 0 0 0-.79-3.814m-1.275 3.108V13.23h1.259c.483 0 1.291.15 1.291 1.15 0 .725-.475 1.133-1.291 1.133zm1.275-3.108h-1.666a.407.407 0 0 0-.409.417v3.1a.41.41 0 0 0 .409.408h1.666a1.9 1.9 0 0 0 .791-.111 1.966 1.966 0 0 0-.79-3.814m-1.275 3.108V13.23h1.259c.483 0 1.291.15 1.291 1.15 0 .725-.475 1.133-1.291 1.133zm1.275-3.108h-1.666a.407.407 0 0 0-.409.417v3.1a.41.41 0 0 0 .409.408h1.666a1.9 1.9 0 0 0 .791-.111 1.966 1.966 0 0 0-.79-3.814m-1.275 3.108V13.23h1.259c.483 0 1.291.15 1.291 1.15 0 .725-.475 1.133-1.291 1.133zm1.275-3.108h-1.666a.407.407 0 0 0-.409.417v3.1a.41.41 0 0 0 .409.408h1.666a1.9 1.9 0 0 0 .791-.111 1.966 1.966 0 0 0-.79-3.814m-1.275 3.108V13.23h1.259c.483 0 1.291.15 1.291 1.15 0 .725-.475 1.133-1.291 1.133zm1.275-3.108h-1.666a.407.407 0 0 0-.409.417v3.1a.41.41 0 0 0 .409.408h1.666a1.9 1.9 0 0 0 .791-.111 1.966 1.966 0 0 0-.79-3.814m-1.275 3.108V13.23h1.259c.483 0 1.291.15 1.291 1.15 0 .725-.475 1.133-1.291 1.133zm1.275-3.108h-1.666a.407.407 0 0 0-.409.417v3.1a.41.41 0 0 0 .409.408h1.666a1.9 1.9 0 0 0 .791-.111 1.966 1.966 0 0 0-.79-3.814m-1.275 3.108V13.23h1.259c.483 0 1.291.15 1.291 1.15 0 .725-.475 1.133-1.291 1.133zm1.275-3.108h-1.666a.407.407 0 0 0-.409.417v3.1a.41.41 0 0 0 .409.408h1.666a1.9 1.9 0 0 0 .791-.111 1.966 1.966 0 0 0-.79-3.814m-1.275 3.108V13.23h1.259c.483 0 1.291.15 1.291 1.15 0 .725-.475 1.133-1.291 1.133zm1.275-3.108h-1.666a.407.407 0 0 0-.409.417v3.1a.41.41 0 0 0 .409.408h1.666a1.9 1.9 0 0 0 .791-.111 1.966 1.966 0 0 0-.79-3.814m-1.275 3.108V13.23h1.259c.483 0 1.291.15 1.291 1.15 0 .725-.475 1.133-1.291 1.133zm1.275-3.108h-1.666a.407.407 0 0 0-.409.417v3.1a.41.41 0 0 0 .409.408h1.666a1.9 1.9 0 0 0 .791-.111 1.966 1.966 0 0 0-.79-3.814m-1.275 3.108V13.23h1.259c.483 0 1.291.15 1.291 1.15 0 .725-.475 1.133-1.291 1.133zm1.275-3.108h-1.666a.407.407 0 0 0-.409.417v3.1a.41.41 0 0 0 .409.408h1.666a1.9 1.9 0 0 0 .791-.111 1.966 1.966 0 0 0-.79-3.814m-1.275 3.108V13.23h1.259c.483 0 1.291.15 1.291 1.15 0 .725-.475 1.133-1.291 1.133zm1.275-3.108h-1.666a.407.407 0 0 0-.409.417v3.1a.41.41 0 0 0 .409.408h1.666a1.9 1.9 0 0 0 .791-.111 1.966 1.966 0 0 0-.79-3.814m-1.275 3.108V13.23h1.259c.483 0 1.291.15 1.291 1.15 0 .725-.475 1.133-1.291 1.133zm1.275-3.108h-1.666a.407.407 0 0 0-.409.417v3.1a.41.41 0 0 0 .409.408h1.666a1.9 1.9 0 0 0 .791-.111 1.966 1.966 0 0 0-.79-3.814m-1.275 3.108V13.23h1.259c.483 0 1.291.15 1.291 1.15 0 .725-.475 1.133-1.291 1.133zm1.275-3.108h-1.666a.407.407 0 0 0-.409.417v3.1a.41.41 0 0 0 .409.408h1.666a1.9 1.9 0 0 0 .791-.111 1.966 1.966 0 0 0-.79-3.814m-1.275 3.108V13.23h1.259c.483 0 1.291.15 1.291 1.15 0 .725-.475 1.133-1.291 1.133zm1.275-3.108h-1.666a.407.407 0 0 0-.409.417v3.1a.41.41 0 0 0 .409.408h1.666a1.9 1.9 0 0 0 .791-.111 1.966 1.966 0 0 0-.79-3.814m-1.275 3.108V13.23h1.259c.483 0 1.291.15 1.291 1.15 0 .725-.475 1.133-1.291 1.133zm1.275-3.108h-1.666a.407.407 0 0 0-.409.417v3.1a.41.41 0 0 0 .409.408h1.666a1.9 1.9 0 0 0 .791-.111 1.966 1.966 0 0 0-.79-3.814m-1.275 3.108V13.23h1.259c.483 0 1.291.15 1.291 1.15 0 .725-.475 1.133-1.291 1.133zm1.517-4.941h-4.017a.41.41 0 0 0-.408.408v10.858a.41.41 0 0 0 .408.409h2.117a.41.41 0 0 0 .383-.409v-3.683h1.534a3.72 3.72 0 0 0 3.991-3.817 3.717 3.717 0 0 0-3.975-3.766zm0 6.766h-1.908a.41.41 0 0 0-.409.409v3.675h-1.3v-10h3.65a2.907 2.907 0 0 1 3.159 2.916 2.908 2.908 0 0 1-3.159 3zm-.242-4.933h-1.666a.407.407 0 0 0-.409.417v3.1a.41.41 0 0 0 .409.408h1.666a1.9 1.9 0 0 0 .791-.111 1.966 1.966 0 0 0-.79-3.814m-1.275 3.108V13.23h1.259c.483 0 1.291.15 1.291 1.15 0 .725-.475 1.133-1.291 1.133zm1.275-3.108h-1.666a.407.407 0 0 0-.409.417v3.1a.41.41 0 0 0 .409.408h1.666a1.9 1.9 0 0 0 .791-.111 1.966 1.966 0 0 0-.79-3.814m-1.275 3.108V13.23h1.259c.483 0 1.291.15 1.291 1.15 0 .725-.475 1.133-1.291 1.133zm1.275-3.108h-1.666a.407.407 0 0 0-.409.417v3.1a.41.41 0 0 0 .409.408h1.666a1.9 1.9 0 0 0 .791-.111 1.966 1.966 0 0 0-.79-3.814m-1.275 3.108V13.23h1.259c.483 0 1.291.15 1.291 1.15 0 .725-.475 1.133-1.291 1.133zm1.275-3.108h-1.666a.407.407 0 0 0-.409.417v3.1a.41.41 0 0 0 .409.408h1.666a1.9 1.9 0 0 0 .791-.111 1.966 1.966 0 0 0-.79-3.814m-1.275 3.108V13.23h1.259c.483 0 1.291.15 1.291 1.15 0 .725-.475 1.133-1.291 1.133zm1.275-3.108h-1.666a.407.407 0 0 0-.409.417v3.1a.41.41 0 0 0 .409.408h1.666a1.9 1.9 0 0 0 .791-.111 1.966 1.966 0 0 0-.79-3.814m-1.275 3.108V13.23h1.259c.483 0 1.291.15 1.291 1.15 0 .725-.475 1.133-1.291 1.133zm1.275-3.108h-1.666a.407.407 0 0 0-.409.417v3.1a.41.41 0 0 0 .409.408h1.666a1.9 1.9 0 0 0 .791-.111 1.966 1.966 0 0 0-.79-3.814m-1.275 3.108V13.23h1.259c.483 0 1.291.15 1.291 1.15 0 .725-.475 1.133-1.291 1.133zm1.275-3.108h-1.666a.407.407 0 0 0-.409.417v3.1a.41.41 0 0 0 .409.408h1.666a1.9 1.9 0 0 0 .791-.111 1.966 1.966 0 0 0-.79-3.814m-1.275 3.108V13.23h1.259c.483 0 1.291.15 1.291 1.15 0 .725-.475 1.133-1.291 1.133zm1.275-3.108h-1.666a.407.407 0 0 0-.409.417v3.1a.41.41 0 0 0 .409.408h1.666a1.9 1.9 0 0 0 .791-.111 1.966 1.966 0 0 0-.79-3.814m-1.275 3.108V13.23h1.259c.483 0 1.291.15 1.291 1.15 0 .725-.475 1.133-1.291 1.133zm1.275-3.108h-1.666a.407.407 0 0 0-.409.417v3.1a.41.41 0 0 0 .409.408h1.666a1.9 1.9 0 0 0 .791-.111 1.966 1.966 0 0 0-.79-3.814m-1.275 3.108V13.23h1.259c.483 0 1.291.15 1.291 1.15 0 .725-.475 1.133-1.291 1.133zm1.275-3.108h-1.666a.407.407 0 0 0-.409.417v3.1a.41.41 0 0 0 .409.408h1.666a1.9 1.9 0 0 0 .791-.111 1.966 1.966 0 0 0-.79-3.814m-1.275 3.108V13.23h1.259c.483 0 1.291.15 1.291 1.15 0 .725-.475 1.133-1.291 1.133zm1.275-3.108h-1.666a.407.407 0 0 0-.409.417v3.1a.41.41 0 0 0 .409.408h1.666a1.9 1.9 0 0 0 .791-.111 1.966 1.966 0 0 0-.79-3.814m-1.275 3.108V13.23h1.259c.483 0 1.291.15 1.291 1.15 0 .725-.475 1.133-1.291 1.133zm1.275-3.108h-1.666a.407.407 0 0 0-.409.417v3.1a.41.41 0 0 0 .409.408h1.666a1.9 1.9 0 0 0 .791-.111 1.966 1.966 0 0 0-.79-3.814m-1.275 3.108V13.23h1.259c.483 0 1.291.15 1.291 1.15 0 .725-.475 1.133-1.291 1.133zm1.275-3.108h-1.666a.407.407 0 0 0-.409.417v3.1a.41.41 0 0 0 .409.408h1.666a1.9 1.9 0 0 0 .791-.111 1.966 1.966 0 0 0-.79-3.814m-1.275 3.108V13.23h1.259c.483 0 1.291.15 1.291 1.15 0 .725-.475 1.133-1.291 1.133zm1.275-3.108h-1.666a.407.407 0 0 0-.409.417v3.1a.41.41 0 0 0 .409.408h1.666a1.9 1.9 0 0 0 .791-.111 1.966 1.966 0 0 0-.79-3.814m-1.275 3.108V13.23h1.259c.483 0 1.291.15 1.291 1.15 0 .725-.475 1.133-1.291 1.133zm1.275-3.108h-1.666a.407.407 0 0 0-.409.417v3.1a.41.41 0 0 0 .409.408h1.666a1.9 1.9 0 0 0 .791-.111 1.966 1.966 0 0 0-.79-3.814m-1.275 3.108V13.23h1.259c.483 0 1.291.15 1.291 1.15 0 .725-.475 1.133-1.291 1.133zm1.275-3.108h-1.666a.407.407 0 0 0-.409.417v3.1a.41.41 0 0 0 .409.408h1.666a1.9 1.9 0 0 0 .791-.111 1.966 1.966 0 0 0-.79-3.814m-1.275 3.108V13.23h1.259c.483 0 1.291.15 1.291 1.15 0 .725-.475 1.133-1.291 1.133zm1.275-3.108h-1.666a.407.407 0 0 0-.409.417v3.1a.41.41 0 0 0 .409.408h1.666a1.9 1.9 0 0 0 .791-.111 1.966 1.966 0 0 0-.79-3.814m-1.275 3.108V13.23h1.259c.483 0 1.291.15 1.291 1.15 0 .725-.475 1.133-1.291 1.133zm1.275-3.108h-1.666a.407.407 0 0 0-.409.417v3.1a.41.41 0 0 0 .409.408h1.666a1.9 1.9 0 0 0 .791-.111 1.966 1.966 0 0 0-.79-3.814m-1.275 3.108V13.23h1.259c.483 0 1.291.15 1.291 1.15 0 .725-.475 1.133-1.291 1.133zm1.275-3.108h-1.666a.407.407 0 0 0-.409.417v3.1a.41.41 0 0 0 .409.408h1.666a1.9 1.9 0 0 0 .791-.111 1.966 1.966 0 0 0-.79-3.814m-1.275 3.108V13.23h1.259c.483 0 1.291.15 1.291 1.15 0 .725-.475 1.133-1.291 1.133zm1.275-3.108h-1.666a.407.407 0 0 0-.409.417v3.1a.41.41 0 0 0 .409.408h1.666a1.9 1.9 0 0 0 .791-.111 1.966 1.966 0 0 0-.79-3.814m-1.275 3.108V13.23h1.259c.483 0 1.291.15 1.291 1.15 0 .725-.475 1.133-1.291 1.133zm1.275-3.108h-1.666a.407.407 0 0 0-.409.417v3.1a.41.41 0 0 0 .409.408h1.666a1.9 1.9 0 0 0 .791-.111 1.966 1.966 0 0 0-.79-3.814m-1.275 3.108V13.23h1.259c.483 0 1.291.15 1.291 1.15 0 .725-.475 1.133-1.291 1.133zm1.275-3.108h-1.666a.407.407 0 0 0-.409.417v3.1a.41.41 0 0 0 .409.408h1.666a1.9 1.9 0 0 0 .791-.111 1.966 1.966 0 0 0-.79-3.814m-1.275 3.108V13.23h1.259c.483 0 1.291.15 1.291 1.15 0 .725-.475 1.133-1.291 1.133zm1.275-3.108h-1.666a.407.407 0 0 0-.409.417v3.1a.41.41 0 0 0 .409.408h1.666a1.9 1.9 0 0 0 .791-.111 1.966 1.966 0 0 0-.79-3.814m-1.275 3.108V13.23h1.259c.483 0 1.291.15 1.291 1.15 0 .725-.475 1.133-1.291 1.133zm1.275-3.108h-1.666a.407.407 0 0 0-.409.417v3.1a.41.41 0 0 0 .409.408h1.666a1.9 1.9 0 0 0 .791-.111 1.966 1.966 0 0 0-.79-3.814m-1.275 3.108V13.23h1.259c.483 0 1.291.15 1.291 1.15 0 .725-.475 1.133-1.291 1.133zm1.275-3.108h-1.666a.407.407 0 0 0-.409.417v3.1a.41.41 0 0 0 .409.408h1.666a1.9 1.9 0 0 0 .791-.111 1.966 1.966 0 0 0-.79-3.814m-1.275 3.108V13.23h1.259c.483 0 1.291.15 1.291 1.15 0 .725-.475 1.133-1.291 1.133zm1.275-3.108h-1.666a.407.407 0 0 0-.409.417v3.1a.41.41 0 0 0 .409.408h1.666a1.9 1.9 0 0 0 .791-.111 1.966 1.966 0 0 0-.79-3.814m-1.275 3.108V13.23h1.259c.483 0 1.291.15 1.291 1.15 0 .725-.475 1.133-1.291 1.133zm1.275-3.108h-1.666a.407.407 0 0 0-.409.417v3.1a.41.41 0 0 0 .409.408h1.666a1.9 1.9 0 0 0 .791-.111 1.966 1.966 0 0 0-.79-3.814m-1.275 3.108V13.23h1.259c.483 0 1.291.15 1.291 1.15 0 .725-.475 1.133-1.291 1.133zm1.275-3.108h-1.666a.407.407 0 0 0-.409.417v3.1a.41.41 0 0 0 .409.408h1.666a1.9 1.9 0 0 0 .791-.111 1.966 1.966 0 0 0-.79-3.814m-1.275 3.108V13.23h1.259c.483 0 1.291.15 1.291 1.15 0 .725-.475 1.133-1.291 1.133zm1.275-3.108h-1.666a.407.407 0 0 0-.409.417v3.1a.41.41 0 0 0 .409.408h1.666a1.9 1.9 0 0 0 .791-.111 1.966 1.966 0 0 0-.79-3.814m-1.275 3.108V13.23h1.259c.483 0 1.291.15 1.291 1.15 0 .725-.475 1.133-1.291 1.133zm1.275-3.108h-1.666a.407.407 0 0 0-.409.417v3.1a.41.41 0 0 0 .409.408h1.666a1.9 1.9 0 0 0 .791-.111 1.966 1.966 0 0 0-.79-3.814m-1.275 3.108V13.23h1.259c.483 0 1.291.15 1.291 1.15 0 .725-.475 1.133-1.291 1.133zm1.275-3.108h-1.666a.407.407 0 0 0-.409.417v3.1a.41.41 0 0 0 .409.408h1.666a1.9 1.9 0 0 0 .791-.111 1.966 1.966 0 0 0-.79-3.814m-1.275 3.108V13.23h1.259c.483 0 1.291.15 1.291 1.15 0 .725-.475 1.133-1.291 1.133zm1.275-3.108h-1.666a.407.407 0 0 0-.409.417v3.1a.41.41 0 0 0 .409.408h1.666a1.9 1.9 0 0 0 .791-.111 1.966 1.966 0 0 0-.79-3.814m-1.275 3.108V13.23h1.259c.483 0 1.291.15 1.291 1.15 0 .725-.475 1.133-1.291 1.133zm1.275-3.108h-1.666a.407.407 0 0 0-.409.417v3.1a.41.41 0 0 0 .409.408h1.666a1.9 1.9 0 0 0 .791-.111 1.966 1.966 0 0 0-.79-3.814m-1.275 3.108V13.23h1.259c.483 0 1.291.15 1.291 1.15 0 .725-.475 1.133-1.291 1.133zm1.275-3.108h-1.666a.407.407 0 0 0-.409.417v3.1a.41.41 0 0 0 .409.408h1.666a1.9 1.9 0 0 0 .791-.111 1.966 1.966 0 0 0-.79-3.814m-1.275 3.108V13.23h1.259c.483 0 1.291.15 1.291 1.15 0 .725-.475 1.133-1.291 1.133zm1.275-3.108h-1.666a.407.407 0 0 0-.409.417v3.1a.41.41 0 0 0 .409.408h1.666a1.9 1.9 0 0 0 .791-.111 1.966 1.966 0 0 0-.79-3.814m-1.275 3.108V13.23h1.259c.483 0 1.291.15 1.291 1.15 0 .725-.475 1.133-1.291 1.133z"/></g><defs><clipPath id="a"><path fill="#fff" d="M1 1h30v30H1z"/></clipPath></defs></svg>