<svg xmlns="http://www.w3.org/2000/svg" width="32" height="32" fill="none"><g fill="#343434" clip-path="url(#a)"><path d="M24.208 7.491a1.4 1.4 0 0 0-1.258-1.233h-.142a1.39 1.39 0 0 0-1.3.908c-2.239-.36-4.5-.563-6.767-.608h-.833c-2.462.023-4.92.232-7.35.625a1.4 1.4 0 0 0-1.25-.892h-.092a1.37 1.37 0 0 0-1.242.767 1.34 1.34 0 0 0 .2 1.55c.18.18.396.319.634.408l-.1.833c-.075.684-.15 1.384-.217 2.084-.104 1.997-.001 4 .308 5.975a1.4 1.4 0 0 0-.966 1.467 1.425 1.425 0 0 0 1.333 1.258h.117a1.39 1.39 0 0 0 1.308-.925c.742.117 1.492.216 2.267.3l.833.083v-.833c-.275 0-.55-.05-.833-.084a38 38 0 0 1-2.167-.291H6.45c-.308 0-.458.15-.583.533a.575.575 0 0 1-.55.417h-.15a.583.583 0 0 1-.133-1.142c.525-.166.625-.341.558-.833a27.7 27.7 0 0 1-.308-5.834c.083-.991.208-1.983.316-2.975a1 1 0 0 1 0-.141.64.64 0 0 0-.433-.667 1 1 0 0 1-.392-.225.525.525 0 0 1-.066-.625.54.54 0 0 1 .508-.317.57.57 0 0 1 .525.384c.175.408.292.541.592.541q.153.01.308 0a49 49 0 0 1 7.233-.608h.834c2.264.044 4.523.25 6.758.617h.367a.5.5 0 0 0 .216-.109.83.83 0 0 0 .226-.383.62.62 0 0 1 .391-.417.7.7 0 0 1 .183 0h.067a.59.59 0 0 1 .525.509.62.62 0 0 1-.425.65c-.508.15-.616.325-.55.833.142 1.067.275 2.134.325 3.209v.833l.834.083v-.833c-.05-1.108-.184-2.208-.334-3.4a1.416 1.416 0 0 0 .917-1.492"/><path d="M27.667 23.503H27.6c0-.134 0-.259.05-.392.2-1.4.301-2.811.3-4.225a33 33 0 0 0-.35-4.25 1.416 1.416 0 0 0 .967-1.508 1.4 1.4 0 0 0-1.267-1.292h-.141a1.39 1.39 0 0 0-1.3.908 40 40 0 0 0-2.283-.316l-.834-.092a56 56 0 0 0-3.658-.208h-.834c-2.462.023-4.919.232-7.35.625a1.39 1.39 0 0 0-1.266-.917h-.067a1.37 1.37 0 0 0-1.242.767 1.35 1.35 0 0 0 .175 1.533c.18.18.396.32.634.408l-.1.834c-.075.683-.159 1.383-.217 2.083q-.071.831-.058 1.667v.833c.05 1.2.2 2.367.333 3.442a1.4 1.4 0 0 0 .325 2.733h.117a1.39 1.39 0 0 0 1.308-.925c2.226.346 4.473.55 6.725.608h.884a45 45 0 0 0 4.625-.283 50 50 0 0 0 1.991-.25l.717-.1a1.4 1.4 0 0 0 1.325.933h.175a1.42 1.42 0 0 0 1.217-1.216 1.39 1.39 0 0 0-.834-1.4m-.417 1.883h-.083a.58.58 0 0 1-.558-.4 2 2 0 0 0-.075-.242.54.54 0 0 0-.542-.308h-.15c-.933.125-1.858.267-2.791.358a44 44 0 0 1-4.542.284h-.834a54 54 0 0 1-6.666-.609h-.242a.46.46 0 0 0-.358.125.2.2 0 0 0-.067.075 1.3 1.3 0 0 0-.158.334.6.6 0 0 1-.367.383.5.5 0 0 1-.183 0h-.05a.583.583 0 0 1-.455-.898.57.57 0 0 1 .321-.235c.525-.167.626-.342.559-.834-.134-1.083-.267-2.175-.334-3.275v-.833q-.024-.86.05-1.717c.084-.991.209-1.975.317-2.966v-.15a.625.625 0 0 0-.483-.634 1 1 0 0 1-.392-.225.516.516 0 0 1-.067-.625.54.54 0 0 1 .509-.316.57.57 0 0 1 .525.383c.052.155.137.298.25.417l.066.058c.085.043.18.063.276.058l.274-.091c.684-.1 1.359-.192 2.042-.275a55 55 0 0 1 2.125-.217h.692c.417 0 .833-.05 1.242-.067h1.966c1.233 0 2.5.1 3.7.225l.834.084c.75.083 1.491.191 2.241.316a.8.8 0 0 0 .2 0c.292 0 .458-.15.575-.5a.58.58 0 0 1 .358-.4.33.33 0 0 1 .159 0h.1a.59.59 0 0 1 .525.509.6.6 0 0 1-.425.641c-.508.159-.617.325-.55.875a33 33 0 0 1 .35 4.167 29.5 29.5 0 0 1-.3 4.067c0 .208-.058.425-.075.641a.56.56 0 0 0 .433.625l.167.05a.56.56 0 0 1 .383.617.58.58 0 0 1-.5.508z"/></g><defs><clipPath id="a"><path fill="#fff" d="M1 1h30v30H1z"/></clipPath></defs></svg>