<svg xmlns="http://www.w3.org/2000/svg" width="33" height="33" fill="none"><path fill="#343434" d="M28.598 13.611h-1.93a.836.836 0 0 0-.835.836v5.191a.835.835 0 0 0 .836.835h1.929a.89.89 0 0 0 .835-.835v-5.191a.89.89 0 0 0-.835-.836m-.045 5.991h-1.849v-5.12h1.85z"/><path fill="#343434" d="M25.869 9.291H4.402a.836.836 0 0 0-.835.836v13.83a.835.835 0 0 0 .835.836H25.87a.835.835 0 0 0 .835-.835V10.127a.836.836 0 0 0-.835-.836m0 14.631H4.438v-13.76h21.395z"/><path stroke="#343434" stroke-linejoin="round" d="M6.547 12.546a.5.5 0 0 1 .5-.5h2.666a.5.5 0 0 1 .5.5v8.907a.5.5 0 0 1-.5.5H7.047a.5.5 0 0 1-.5-.5zM12.796 12.552a.5.5 0 0 1 .5-.5h2.666a.5.5 0 0 1 .5.5v8.906a.5.5 0 0 1-.5.5h-2.666a.5.5 0 0 1-.5-.5zM19.142 12.552a.5.5 0 0 1 .5-.5h2.667a.5.5 0 0 1 .5.5v8.906a.5.5 0 0 1-.5.5h-2.667a.5.5 0 0 1-.5-.5z"/></svg>