<svg xmlns="http://www.w3.org/2000/svg" width="32" height="32" fill="none"><path fill="#343434" d="M24.791 13.114a1.06 1.06 0 0 0-.458-.45 1 1 0 0 0-.492-.125H8.166a1 1 0 0 0-.5.125h-.058a.97.97 0 0 0-.409.409 1.1 1.1 0 0 0-.158.558v13.808a1.125 1.125 0 0 0 1.125 1.125h15.658a1.125 1.125 0 0 0 1.125-1.125V13.673a1.1 1.1 0 0 0-.158-.559m-.658.558V27.44a.31.31 0 0 1-.309.308H8.166a.3.3 0 0 1-.3-.308V13.673a.31.31 0 0 1 .3-.309h15.658a.317.317 0 0 1 .309.308"/><path fill="#343434" d="M24.258 3.434H7.733a.69.69 0 0 0-.692.691v8.542a.66.66 0 0 0 .158.433.7.7 0 0 0 .517.25h16.558a.7.7 0 0 0 .517-.25.66.66 0 0 0 .158-.433V4.125a.69.69 0 0 0-.691-.691M7.866 12.55v-8.3h16.267v8.334zm1.758 2.617v3.042a.417.417 0 1 1-.833 0v-3.042a.417.417 0 1 1 .833 0"/><path fill="#343434" d="M9.624 6.885v3.042a.417.417 0 1 1-.833 0V6.885a.417.417 0 1 1 .833 0"/></svg>