<svg xmlns="http://www.w3.org/2000/svg" width="32" height="32" fill="none"><g fill="#343434" clip-path="url(#a)"><path d="M25.44 20.885a10 10 0 0 0-.59-.425l-.31-.184a9 9 0 0 0-.633-.325l-.341-.141a10 10 0 0 0-.683-.242l-.675-.192-.684-.158-.258-.083a.7.7 0 0 1-.217-.084 1.2 1.2 0 0 1-.233-.108 1.5 1.5 0 0 1-.225-.125 2.7 2.7 0 0 1-.425-.317 5 5 0 0 1-.342-.358 4.6 4.6 0 0 1-.533-.833c0-.042 0-.142.058-.192a11.9 11.9 0 0 0 2.1-4.383q.108-.991.383-1.95a.1.1 0 0 0 0-.042c.031-.482.219-.942.534-1.308.216-.275.45-.542.666-.834a.692.692 0 0 0-.141-1.05 11 11 0 0 0-.708-.5l-5.475-3.55a1.34 1.34 0 0 0-1.542 0c-.692.434-1.4.834-2.075 1.292a175 175 0 0 0-4 2.658.758.758 0 0 0-.117 1.209c.225.25.467.491.7.733a2.3 2.3 0 0 1 .684 1.458.73.73 0 0 0 .133.409c.176.242.273.533.275.833a10.35 10.35 0 0 0 1.8 4.758.475.475 0 0 1 0 .609 5 5 0 0 1-.417.625 3.07 3.07 0 0 1-1.883 1.133 8.95 8.95 0 0 0-3.434 1.442 4.17 4.17 0 0 0-1.991 3.375q-.014 1.405.166 2.8a1.667 1.667 0 0 0 1.709 1.45h7.775a7 7 0 0 1-.55-.617.35.35 0 0 0-.325-.167H6.832a2 2 0 0 1-.233 0 .92.92 0 0 1-.833-.741c-.067-.834-.159-1.6-.167-2.4A3.33 3.33 0 0 1 6.532 22a5.7 5.7 0 0 1 2.317-1.466c.833-.275 1.667-.484 2.45-.725l1.234 1.766.883 1.275c.308.459.716.459 1.016 0 .109-.175.209-.341.334-.533.117.25.283.425.233.725-.216 1.175-.4 2.358-.583 3.542a.9.9 0 0 0 .325.883c.316.258.65.492.992.725a.5.5 0 0 0 .274.108h.134l.03-.003a.5.5 0 0 0 .195-.08q.512-.352 1-.742a.91.91 0 0 0 .341-.916c-.241-1.159-.466-2.325-.733-3.475a.93.93 0 0 1 .217-.734c.125.217.233.4.358.584a.517.517 0 0 0 .917 0l1.175-1.667.35-.5.625-.892c.325.084.625.175.925.234a8.2 8.2 0 0 1 3.133 1.291 3.51 3.51 0 0 1 1.667 3.334c-.059.591-.125 1.183-.125 1.766a1.016 1.016 0 0 1-1 1.025h-6.492a.53.53 0 0 0-.558.275q-.181.276-.417.509h7.734c.437-.06.832-.29 1.1-.642l.041-.042v-.05a.4.4 0 0 0 0-.058l.059-.1a.3.3 0 0 0 .05-.108 1 1 0 0 0 .041-.109.5.5 0 0 0 .042-.116q.008-.121 0-.242c.05-.625.091-1.25.158-1.867a4.28 4.28 0 0 0-1.533-4.091m-8.95 1.05a.26.26 0 0 1-.132.05h-.417c-.367.091-.534-.125-.642-.409a.23.23 0 0 1 0-.183q.077-.163.184-.308a.23.23 0 0 1 .158-.067h.467a.4.4 0 0 1 .45.233.53.53 0 0 1-.067.684M10.659 9.076a.38.38 0 0 1-.325-.141L9.548 8.1c.425-.3.834-.6 1.25-.833 1.383-.9 2.775-1.783 4.167-2.667h.05l.642-.408a.475.475 0 0 1 .541 0l6.167 4.033.041.05-.674.834a.28.28 0 0 1-.159.066h-3.983a1.6 1.6 0 0 0-.625-1.233 1.56 1.56 0 0 0-.967-.433c-.833 0-1.325.483-1.591 1.566zm5.356.775a.783.783 0 0 1 .002-1.558.83.83 0 0 1 .783.625q.006.08 0 .158.006.075 0 .15a.83.83 0 0 1-.8.625zm-4.865.834a5.5 5.5 0 0 0-.175-.834h3.442a.36.36 0 0 1 .316.15 1.558 1.558 0 0 0 2.5 0 .33.33 0 0 1 .217-.133h3.733c-.05.283-.083.558-.158.833a.57.57 0 0 1-.45.459c-.725.125-1.45.291-2.183.35-.258 0-.517.041-.783.05-.742.041-1.476.05-2.226.041a19 19 0 0 1-3.924-.525.41.41 0 0 1-.334-.408zm.617 2.5c-.1-.4-.159-.834-.242-1.25 2.412.511 4.89.635 7.342.366a26 26 0 0 0 1.933-.3c-.041.184-.066.375-.108.559a10.8 10.8 0 0 1-1.983 4.116 3.6 3.6 0 0 1-1.667 1.267 3 3 0 0 1-1.334.142 3.33 3.33 0 0 1-2.166-1.159 9 9 0 0 1-1.8-3.783zm3.025 7.633a31 31 0 0 1-.834 1.308h-.05L13.2 21.11l-1.175-1.667.684-.633.983.833.2.167c.267.225.525.45.833.658a.25.25 0 0 1 .042.308zm-.167-1.483a43 43 0 0 0-1.483-1.242l.183-.333a4.47 4.47 0 0 0 3.109 1.058 4.37 4.37 0 0 0 2.25-1c.05.083.1.158.15.25l-1.717 1.442c-.225.191-.433.416-.642.625a.22.22 0 0 1-.142.058h-.716a.18.18 0 0 1-.133-.042c-.317-.233-.559-.525-.859-.816m.692 7.5a.32.32 0 0 1-.109-.25c.209-1.267.417-2.542.634-3.817h.308c.117.583.242 1.158.358 1.733.117.575.275 1.317.417 1.975a.375.375 0 0 1-.166.45c-.234.142-.45.317-.675.475-.267-.183-.525-.358-.767-.566m3.841-6.325c-.366.533-.75 1.066-1.125 1.608a11 11 0 0 1-.333-.542c-.1-.175-.333-.525-.492-.791a.24.24 0 0 1 0-.342l1.342-1.108.675-.559h.05c.1.109.192.217.3.317s.233.183.367.283c-.25.392-.517.792-.784 1.142z"/><path d="M22.9 23.147h-2.55a.416.416 0 0 0-.458.459v2.05a.55.55 0 0 0 .383.55c.417.15.833.3 1.25.433a.42.42 0 0 0 .283 0c.392-.125.784-.267 1.175-.408a.56.56 0 0 0 .434-.617v-1.958c0-.375-.134-.509-.517-.509m-.233 2.284c0 .041-.067.108-.109.125q-.383.15-.775.275a.32.32 0 0 1-.2 0c-.25-.084-.491-.167-.733-.267-.058 0-.133-.1-.133-.158v-1.45h1.95zm.425-3.384-.525-.216v-.525s.058-.084.1-.092q.194-.075.4-.108a.2.2 0 0 1 .158.058q.114.152.217.317c.066.108 0 .116 0 .141s-.217.292-.35.425M11 21.156a.2.2 0 0 1-.083.158c-.142.058-.292.1-.459.15l-.408-.467.3-.458c.175 0 .358.058.533.108 0 0 .059.092.067.142q.045.18.05.367m-1.592.583c0 .108 0 .15-.108.175q-.229.054-.45.133l-.35-.441a7 7 0 0 1 .258-.434.2.2 0 0 1 .117-.05s.042 0 .067.042c.15.042.35.042.441.142s0 .291.025.433m12.117-.275L21 21.272v-.5c0-.158.067-.1.108-.116q.193-.067.392-.109a.22.22 0 0 1 .158.059q.12.153.209.325a.16.16 0 0 1 0 .133c-.084.142-.217.267-.342.4"/></g><defs><clipPath id="a"><path fill="#fff" d="M1 1h30v30H1z"/></clipPath></defs></svg>