<svg xmlns="http://www.w3.org/2000/svg" width="32" height="32" fill="none"><g fill="#343434" clip-path="url(#a)"><path d="M25.308 9.664H7.142a2.86 2.86 0 0 0-2.859 2.858v12.642a2.867 2.867 0 0 0 2.859 2.858h18.166a2.867 2.867 0 0 0 2.858-2.858V12.522a2.86 2.86 0 0 0-2.858-2.858m2.034 15.5a2.04 2.04 0 0 1-2.034 2.042H7.142A2.04 2.04 0 0 1 5.1 25.164V12.522a2.04 2.04 0 0 1 2.042-2.041h18.166a2.04 2.04 0 0 1 2.034 2.041z"/><path d="M20.409 11.95H9.017a2.175 2.175 0 0 0-2.183 2.174v9.234a2.175 2.175 0 0 0 2.175 2.175h11.4a2.175 2.175 0 0 0 2.167-2.175v-9.234a2.175 2.175 0 0 0-2.167-2.175m1.35 11.408a1.36 1.36 0 0 1-1.35 1.358H9.017a1.35 1.35 0 0 1-1.35-1.358v-9.234a1.35 1.35 0 0 1 1.35-1.358H20.41a1.36 1.36 0 0 1 1.35 1.358zM25 15a1 1 0 1 0 0-2 1 1 0 0 0 0 2M25 18.898a1 1 0 1 0 0-2 1 1 0 0 0 0 2M13.934 10.307a.44.44 0 0 1-.342-.175L10.734 6.04a.417.417 0 0 1 .1-.575.41.41 0 0 1 .566.109l2.442 3.491 2.017-4.641a.4.4 0 0 1 .533-.209.41.41 0 0 1 .217.534l-2.275 5.308a.42.42 0 0 1-.333.25z"/></g><defs><clipPath id="a"><path fill="#fff" d="M1 1h30v30H1z"/></clipPath></defs></svg>