<svg xmlns="http://www.w3.org/2000/svg" width="32" height="32" fill="none"><g clip-path="url(#a)"><path fill="#343434" d="M24.033 3.79H7.966a2.14 2.14 0 0 0-2.142 2.14v20.142a2.15 2.15 0 0 0 2.142 2.142h16.067a2.15 2.15 0 0 0 2.141-2.142V5.931a2.14 2.14 0 0 0-2.141-2.142m1.325 22.282a1.333 1.333 0 0 1-1.325 1.325H7.966a1.325 1.325 0 0 1-1.317-1.325V5.931a1.325 1.325 0 0 1 1.317-1.325h16.067a1.325 1.325 0 0 1 1.325 1.325z"/><path fill="#343434" d="M16 9.96a8.225 8.225 0 1 0 8.226 8.226A8.233 8.233 0 0 0 16 9.96m0 15.634a7.408 7.408 0 1 1 0-14.815 7.408 7.408 0 0 1 0 14.815M6.269 8.711h19.5v.817h-19.5z"/><path stroke="#343434" stroke-width=".75" d="m20.466 19.372.005-.002 1.743-.64a6.234 6.234 0 0 1-12.376.438 6.78 6.78 0 0 1 4.939-.63h.002l.11.054a12.344 12.344 0 0 0 1.783.667c1.094.312 2.547.548 3.794.113Z"/><path fill="#343434" d="M8.5 7a.5.5 0 1 0 0-1 .5.5 0 0 0 0 1M10.5 7a.5.5 0 1 0 0-1 .5.5 0 0 0 0 1M11.484 16.393a.392.392 0 1 0 0-.783.392.392 0 0 0 0 .783M13.176 16.892a.392.392 0 1 1-.784 0 .392.392 0 0 1 .784 0M13.292 14.65a.633.633 0 0 1-.642.642.64.64 0 0 1-.65-.642.65.65 0 0 1 1.107-.46.64.64 0 0 1 .185.46"/></g><defs><clipPath id="a"><path fill="#fff" d="M1 1h30v30H1z"/></clipPath></defs></svg>