<svg xmlns="http://www.w3.org/2000/svg" width="32" height="32" fill="none"><g fill="#343434" clip-path="url(#a)"><path d="M25.117 13.04h-18a3.333 3.333 0 0 0-3.334 3.332v5.834a3.334 3.334 0 0 0 3.334 3.333h18a3.334 3.334 0 0 0 3.333-3.333v-5.834a3.333 3.333 0 0 0-3.334-3.333m-20.5 9.166v-5.834a2.5 2.5 0 0 1 2.5-2.5h18a2.5 2.5 0 0 1 2.5 2.5v5.834a2.5 2.5 0 0 1-2.5 2.5h-18a2.5 2.5 0 0 1-2.5-2.484z"/><path d="M11 20a1 1 0 1 0 0-2 1 1 0 0 0 0 2M16 20a1 1 0 1 0 0-2 1 1 0 0 0 0 2M21 20a1 1 0 1 0 0-2 1 1 0 0 0 0 2M16.126 13.85a.45.45 0 0 1-.209-.05.425.425 0 0 1-.15-.567l2.734-4.616a.41.41 0 1 1 .708.416l-2.708 4.617a.39.39 0 0 1-.375.2"/><path d="M23.774 12.084a.42.42 0 0 1-.4-.333 6.283 6.283 0 0 0-10.191-3.692.408.408 0 1 1-.517-.625 7.092 7.092 0 0 1 11.517 4.167.41.41 0 0 1-.334.475z"/><path d="M26.267 10.534a.4.4 0 0 1-.392-.292 9.06 9.06 0 0 0-14.041-4.658.408.408 0 1 1-.484-.658 9.875 9.875 0 0 1 15.309 5.083.408.408 0 0 1-.392.525"/></g><defs><clipPath id="a"><path fill="#fff" d="M1 1h30v30H1z"/></clipPath></defs></svg>